<svg xmlns="http://www.w3.org/2000/svg" width="19" height="19" viewBox="0 0 19 19">
  <g transform="translate(-1833 -258)">
    <path id="Path_45481" data-name="Path 45481" d="M2,0H17a2,2,0,0,1,2,2V17a2,2,0,0,1-2,2H2a2,2,0,0,1-2-2V2A2,2,0,0,1,2,0Z" transform="translate(1833 258)" fill="#f2f2f2"/>
    <path id="Path_45481_-_Outline" data-name="Path 45481 - Outline" d="M2,.2A1.8,1.8,0,0,0,.2,2V17A1.8,1.8,0,0,0,2,18.8H17A1.8,1.8,0,0,0,18.8,17V2A1.8,1.8,0,0,0,17,.2H2M2,0H17a2,2,0,0,1,2,2V17a2,2,0,0,1-2,2H2a2,2,0,0,1-2-2V2A2,2,0,0,1,2,0Z" transform="translate(1833 258)" fill="#959595"/>
  </g>
</svg>
