<svg xmlns="http://www.w3.org/2000/svg" width="34" height="34" viewBox="0 0 34 34">
  <g id="Group_18009" data-name="Group 18009" transform="translate(-6063 48)">
    <rect id="Rectangle_149805" data-name="Rectangle 149805" width="34" height="34" transform="translate(6063 -48)" fill="#fff" opacity="0"/>
    <g id="Group_18008" data-name="Group 18008" transform="translate(5649.669 -135.333)">
      <path id="Path_45400" data-name="Path 45400" d="M445.077,273.179l.006.118c.037.035.019.094.055.129l.007.117c.036.036.018.094.055.13l.007.117c.035.037.018.095.054.131l.007.119c.036.036.019.094.055.129l.005.12c.039.034.021.092.054.129l.008.18c.038.035.02.093.054.129l.01.179c.035.037.018.094.053.131l.008.18c.036.036.019.094.054.131q0,.119.01.239c.033.038.018.094.052.132l.008.241c.051.054,0,.137.055.191q0,.091.007.182a.143.143,0,0,1,.027.1c0,.05-.01.1.026.147l.009.243c.039.048.024.1.027.159s-.011.107.026.154l.01.243c.047.057,0,.137.052.194l.01.426c.057.077,0,.178.053.255q0,.306.01.612c.065.12-.014.26.053.379v1.847c-.037.035-.018.094-.057.128a.835.835,0,0,1-.526.552.9.9,0,0,1-.91-.126.763.763,0,0,1-.3-.426c-.038-.034-.02-.093-.056-.128l-.007-.12a.14.14,0,0,1-.028-.1c0-.05.01-.1-.027-.146l-.009-.116c-.033-.038-.018-.1-.053-.132l-.007-.118c-.036-.036-.018-.094-.055-.13,0-.039,0-.078-.007-.117-.035-.036-.018-.095-.055-.13l-.006-.059c-.039-.034-.019-.094-.057-.128a8.982,8.982,0,0,0-.317-.938,13.56,13.56,0,0,0-.721-1.548,14.371,14.371,0,0,0-1.02-1.6,12.833,12.833,0,0,0-1.627-1.849,13.881,13.881,0,0,0-1.853-1.454,14.8,14.8,0,0,0-1.771-1,15.748,15.748,0,0,0-1.6-.64c-.427-.147-.868-.253-1.3-.376a.694.694,0,0,0-.123-.012c-.036-.036-.094-.019-.13-.055-.169.018-.319-.088-.488-.072-.037-.033-.095-.016-.13-.053l-.12-.007c-.044-.037-.1-.023-.146-.026a.143.143,0,0,1-.1-.027l-.121-.008c-.075-.058-.177.007-.251-.056l-.3-.007c-.044-.035-.1-.022-.147-.025a.144.144,0,0,1-.1-.027l-.425-.008c-.077-.057-.178,0-.255-.053-.175,0-.351,0-.525-.01-.127-.008-.157.045-.156.162,0,.706,0,1.412,0,2.118q0,1.43,0,2.86c-.036.036-.018.094-.055.13,0,.22-.39.558-.6.618a1.052,1.052,0,0,1-.952-.233c-.485-.348-.974-.689-1.459-1.036s-.941-.683-1.413-1.021-.95-.669-1.423-1.007c-.386-.275-.767-.558-1.153-.833-.544-.388-1.092-.769-1.636-1.157-.469-.335-.933-.678-1.4-1.013s-.968-.68-1.449-1.024-.948-.69-1.425-1.031c-.531-.379-1.067-.751-1.6-1.129-.3-.213-.6-.425-.891-.648a.687.687,0,0,1-.254-.389c-.041-.033-.021-.092-.056-.127v-.185a.191.191,0,0,1,.163-.072c.1-.005.2,0,.294,0q12.582,0,25.163,0c.164,0,.326.019.489.026a.49.49,0,0,1,.175.146,20.606,20.606,0,0,1,1.478,1.758,18.323,18.323,0,0,1,1.577,2.6,21.7,21.7,0,0,1,.915,2.164c.158.43.27.874.423,1.3a.5.5,0,0,1,.012.123C445.059,273.085,445.04,273.144,445.077,273.179Z" transform="translate(0 -163.792)" fill="#f06d0c"/>
      <path id="Path_45401" data-name="Path 45401" d="M440.442,101.165a.121.121,0,0,1-.107.051h-26q0-.091,0-.181c.034-.037.017-.094.054-.13a.864.864,0,0,1,.346-.473c.463-.335.932-.663,1.4-.994.629-.446,1.26-.89,1.887-1.337.541-.386,1.077-.777,1.617-1.163.615-.439,1.233-.873,1.848-1.312.54-.386,1.077-.777,1.617-1.163.615-.439,1.233-.873,1.848-1.312.54-.386,1.077-.777,1.617-1.163.615-.439,1.233-.873,1.847-1.315a1.316,1.316,0,0,1,.515-.289c.037-.034.094-.018.132-.051h.24c.038.033.094.017.131.051a.922.922,0,0,1,.617.561c.038.036.023.093.054.132q0,2.5.005,5c0,.082,0,.165,0,.247.038.049.092.029.14.034a.147.147,0,0,1,.1.026l.061.009c.084.05.176.017.264.027.058,0,.119-.012.171.027l.06.008c.046.038.1.023.153.027s.111-.011.159.027l.12.008c.044.037.1.023.146.027a.143.143,0,0,1,.1.027l.059.008c.044.037.1.023.146.027a.143.143,0,0,1,.1.027l.118.009c.037.033.094.017.131.052l.118.007c.035.037.093.02.13.052l.118.01c.036.036.093.019.13.054l.118.008c.036.036.094.019.13.054l.117.008c.036.035.094.018.13.054l.058.006c.035.037.094.019.129.056l.116.007c.036.036.094.017.129.056.426.126.842.28,1.256.44a14.809,14.809,0,0,1,1.384.618,16.8,16.8,0,0,1,2.181,1.306A16.37,16.37,0,0,1,440.442,101.165Z" transform="translate(-0.002)" fill="#f8a42b"/>
    </g>
  </g>
</svg>
