<svg xmlns="http://www.w3.org/2000/svg" width="156" height="156" viewBox="0 0 156 156">
  <g id="Group_17992" data-name="Group 17992" transform="translate(-11628 284)">
    <g id="Group_17988" data-name="Group 17988" transform="translate(401)">
      <g id="Rectangle_149804" data-name="Rectangle 149804" opacity="0">
        <rect id="Rectangle_149804-2" data-name="Rectangle 149804" width="156" height="156" transform="translate(11227 -284)" fill="#fff"/>
        <path id="Rectangle_149804_-_Outline" data-name="Rectangle 149804 - Outline" d="M1,1V155H155V1H1M0,0H156V156H0Z" transform="translate(11227 -284)" fill="#707070"/>
      </g>
    </g>
    <g id="Group_17990" data-name="Group 17990" transform="translate(10850 -719)">
      <g id="Group_17904" data-name="Group 17904" transform="translate(766 408)">
        <g id="Group_17892" data-name="Group 17892" transform="translate(24 69.138)">
          <path id="Path_45411" data-name="Path 45411" d="M7,0H124a7,7,0,0,1,7,7V66a7,7,0,0,1-7,7H7a7,7,0,0,1-7-7V7A7,7,0,0,1,7,0Z" transform="translate(0 -0.138)" fill="#555a6e"/>
          <path id="Path_45408" data-name="Path 45408" d="M2,0H119a2,2,0,0,1,2,2V71a2,2,0,0,1-2,2H2a2,2,0,0,1-2-2V2A2,2,0,0,1,2,0Z" transform="translate(0 -0.138)" fill="#fff"/>
          <path id="Path_45408_-_Outline" data-name="Path 45408 - Outline" d="M2-1.5H119A3.5,3.5,0,0,1,122.5,2V71a3.5,3.5,0,0,1-3.5,3.5H2A3.5,3.5,0,0,1-1.5,71V2A3.5,3.5,0,0,1,2-1.5Zm117,73a.5.5,0,0,0,.5-.5V2a.5.5,0,0,0-.5-.5H2a.5.5,0,0,0-.5.5V71a.5.5,0,0,0,.5.5Z" transform="translate(0 -0.138)" fill="#ebebeb"/>
          <path id="Rectangle_149693" data-name="Rectangle 149693" d="M12,0H119a12,12,0,0,1,12,12v0a0,0,0,0,1,0,0H0a0,0,0,0,1,0,0v0A12,12,0,0,1,12,0Z" transform="translate(131 84.862) rotate(180)" fill="#d6d6d6"/>
          <path id="Rectangle_149694" data-name="Rectangle 149694" d="M0,0H121a0,0,0,0,1,0,0V0a12,12,0,0,1-12,12H12A12,12,0,0,1,0,0V0A0,0,0,0,1,0,0Z" transform="translate(0 72.862)" fill="#ebebeb"/>
          <rect id="Rectangle_149695" data-name="Rectangle 149695" width="22" height="10" transform="translate(51 84.862)" fill="#555a6e"/>
          <rect id="Rectangle_149696" data-name="Rectangle 149696" width="15" height="5" transform="translate(51 89.862)" fill="#d6d6d6"/>
          <path id="Rectangle_149697" data-name="Rectangle 149697" d="M7,0H42a7,7,0,0,1,7,7V7a0,0,0,0,1,0,0H0A0,0,0,0,1,0,7V7A7,7,0,0,1,7,0Z" transform="translate(36 94.862)" fill="#d6d6d6"/>
          <path id="Rectangle_149698" data-name="Rectangle 149698" d="M7,0H8a7,7,0,0,1,7,7V7a0,0,0,0,1,0,0H0A0,0,0,0,1,0,7V7A7,7,0,0,1,7,0Z" transform="translate(70 94.862)" fill="#555a6e"/>
        </g>
        <path id="Path_45412" data-name="Path 45412" d="M6,0H86a6,6,0,0,1,6,6V81a6,6,0,0,1-6,6H6a6,6,0,0,1-6-6V6A6,6,0,0,1,6,0Z" transform="translate(39 40)" fill="#d6d6d6"/>
        <rect id="Rectangle_149700" data-name="Rectangle 149700" width="92" height="9" rx="1" transform="translate(39 40)" fill="#555a6e"/>
        <circle id="Ellipse_1560" data-name="Ellipse 1560" cx="2.5" cy="2.5" r="2.5" transform="translate(46 42)" fill="#f8a42b"/>
        <circle id="Ellipse_1561" data-name="Ellipse 1561" cx="2.5" cy="2.5" r="2.5" transform="translate(56 42)" fill="#f06d0c"/>
        <circle id="Ellipse_1562" data-name="Ellipse 1562" cx="2.5" cy="2.5" r="2.5" transform="translate(65 42)" fill="#fff"/>
        <rect id="Rectangle_149701" data-name="Rectangle 149701" width="73.653" height="29.138" rx="2" transform="translate(47.472 59.425)" fill="#fff"/>
        <rect id="Rectangle_149702" data-name="Rectangle 149702" width="34.803" height="24.281" rx="3" transform="translate(47.472 93.419)" fill="#fff"/>
        <rect id="Rectangle_149703" data-name="Rectangle 149703" width="34.803" height="4.856" rx="2.428" transform="translate(86.322 93.419)" fill="#fff"/>
        <rect id="Rectangle_149704" data-name="Rectangle 149704" width="34.803" height="4.856" rx="2.428" transform="translate(86.322 103.131)" fill="#fff"/>
        <rect id="Rectangle_149705" data-name="Rectangle 149705" width="34.803" height="4.856" rx="2.428" transform="translate(86.322 112.844)" fill="#f06d0c"/>
      </g>
      <g id="Group_17905" data-name="Group 17905" transform="translate(875.436 525.463)">
        <path id="Path_45409" data-name="Path 45409" d="M363.749,302.166l-10.175-10.175,3.291-3.291a5.1,5.1,0,0,0-3.6-8.7H328.319a8.382,8.382,0,0,0-4.422,1.21A8.211,8.211,0,0,0,320,288.2v15.474a5.09,5.09,0,0,0,5.133,5.1v0h9.593v0a4.946,4.946,0,0,0,1.741-.315l5.819,5.819a5.79,5.79,0,0,0,4.094,1.7h9.593a5.79,5.79,0,0,0,4.094-1.7l3.8-3.8a5.793,5.793,0,0,0,1.556-5.362A6.078,6.078,0,0,0,363.749,302.166Z" transform="translate(-320 -280)" fill="#f06d0c"/>
        <path id="Path_45410" data-name="Path 45410" d="M354.276,302.286l-10.295-10.295,3.291-3.291a5.1,5.1,0,0,0-3.6-8.7H328.18a8.169,8.169,0,0,0-5.782,2.4h0a8.206,8.206,0,0,0-2.4,5.8v15.474a5.1,5.1,0,0,0,8.7,3.6l3.291-3.291,10.295,10.295a5.79,5.79,0,0,0,4.094,1.7h0a5.79,5.79,0,0,0,4.094-1.7l3.8-3.8a5.789,5.789,0,0,0,1.7-4.094h0A5.79,5.79,0,0,0,354.276,302.286Z" transform="translate(-320 -280)" fill="#f8a42b"/>
      </g>
    </g>
  </g>
</svg>
