<svg xmlns="http://www.w3.org/2000/svg" width="23" height="23" viewBox="0 0 23 23">
  <g id="Group_17942" data-name="Group 17942" transform="translate(-1281 -58)">
    <circle id="Ellipse_1568" data-name="Ellipse 1568" cx="11.5" cy="11.5" r="11.5" transform="translate(1281 58)" fill="#f06d0c"/>
    <g id="noun_edit_3850190" transform="translate(1275.83 52.83)">
      <g id="Layer_3" data-name="Layer 3" transform="translate(10.17 10.17)">
        <path id="Path_45418" data-name="Path 45418" d="M32.8,13.046l-1.3,1.3L28.83,11.677l1.3-1.3a.714.714,0,0,1,.506-.209.686.686,0,0,1,.506.209L32.8,12.035A.714.714,0,0,1,33,12.54a.686.686,0,0,1-.209.506Z" transform="translate(-20.175 -10.17)" fill="#fff"/>
        <path id="Path_45419" data-name="Path 45419" d="M10.17,22.961l7.885-7.881,2.667,2.667-7.881,7.885H10.17Z" transform="translate(-10.17 -12.802)" fill="#fff"/>
      </g>
    </g>
  </g>
</svg>
