<svg xmlns="http://www.w3.org/2000/svg" width="22.64" height="22.655" viewBox="0 0 22.64 22.655">
  <path id="noun_Log_Out_1823556" data-name="noun_Log Out_1823556" d="M985.231,386.655a1.416,1.416,0,0,1-1.416-1.416v-6.393l1.425,0v5.539a.857.857,0,0,0,.856.857h10.3a.857.857,0,0,0,.857-.857l-.022-18.1a.856.856,0,0,0-.856-.856H986.1a.857.857,0,0,0-.856.856v5.508h-1.426v-6.372A1.416,1.416,0,0,1,985.231,364h12.036a1.416,1.416,0,0,1,1.416,1.416v19.823a1.416,1.416,0,0,1-1.416,1.416Zm-5.007-7.021-4.182-4.293,4.182-4.292a.708.708,0,1,1,1,1l-2.561,2.561h12.223a.708.708,0,0,1,0,1.416H978.62l2.605,2.6a.708.708,0,0,1-1,1Z" transform="translate(-976.043 -364)"/>
</svg>
