<svg xmlns="http://www.w3.org/2000/svg" width="213.581" height="209.708" viewBox="0 0 213.581 209.708">
  <g id="Group_1" data-name="Group 1" opacity="0.3">
    <g id="BACKGROUND" transform="translate(0 0)">
      <g id="Group_9" data-name="Group 9" transform="translate(2.531 7.773)">
        <g id="Group_8" data-name="Group 8" transform="translate(0 0)">
          <g id="Group_3" data-name="Group 3" transform="translate(0 4.727)" opacity="0.41">
            <g id="Group_2" data-name="Group 2">
              <g id="Group_1-2" data-name="Group 1">
                <path id="Path_1" data-name="Path 1" d="M28.393,164.771a63.8,63.8,0,0,1-.252-10.652A69.528,69.528,0,0,1,48.406,109.7c4.177-4.166,8.976-7.955,11.563-13.3,4.356-9,3.49-19.033,9.007-27.983a50.719,50.719,0,0,1,23.48-20.146c28.667-11.871,70.365,2.772,68.482,38.866-.007.13-.012.317-.016.555a12.933,12.933,0,0,0,13.234,13.238c26.958-.776,51.2,19.19,57.5,45.775,4.053,17.1-.224,36.3-11.984,49.169-8.778,9.607-20.917,15.273-33.14,19.372-24.508,8.219-50.59,11.052-76.349,9.772-24.111-1.2-49.766-6.9-66.222-24.917A62.506,62.506,0,0,1,28.393,164.771Z" transform="translate(-28.026 -44.223)" fill="#dc6206"/>
              </g>
            </g>
          </g>
          <g id="Group_4" data-name="Group 4" transform="translate(123.42)" opacity="0.31">
            <ellipse id="Ellipse_1" data-name="Ellipse 1" cx="6.194" cy="6.066" rx="6.194" ry="6.066" transform="matrix(0.021, -1, 1, 0.021, 0, 12.385)" fill="#dc6206"/>
          </g>
          <g id="Group_5" data-name="Group 5" transform="translate(26.83 3.125)" opacity="0.31">
            <path id="Path_2" data-name="Path 2" d="M85.613,44.146a3.131,3.131,0,1,0,2.966-3.357A3.152,3.152,0,0,0,85.613,44.146Z" transform="translate(-85.609 -40.785)" fill="#dc6206"/>
          </g>
          <g id="Group_6" data-name="Group 6" transform="translate(206.906 76.478)" opacity="0.31">
            <path id="Path_3" data-name="Path 3" d="M472.089,200.44a2.073,2.073,0,1,0,1.963-2.222A2.087,2.087,0,0,0,472.089,200.44Z" transform="translate(-472.086 -198.215)" fill="#dc6206"/>
          </g>
          <g id="Group_7" data-name="Group 7" transform="translate(177.948 175.192)" opacity="0.31">
            <ellipse id="Ellipse_2" data-name="Ellipse 2" cx="9.751" cy="9.55" rx="9.751" ry="9.55" transform="translate(0 19.498) rotate(-88.801)" fill="#dc6206"/>
          </g>
        </g>
      </g>
      <g id="Group_13" data-name="Group 13">
        <g id="Group_10" data-name="Group 10">
          <path id="Path_4" data-name="Path 4" d="M24.051,78.209a11.154,11.154,0,0,1,3.926-15.064c5.157-3.057,15.345-3.392,18.334,1.871s-4.93,10.335-8,15.554C34.025,87.849,27.04,83.472,24.051,78.209Z" transform="translate(-22.594 -40.647)" fill="#ecf1f7" opacity="0.47"/>
          <path id="Path_5" data-name="Path 5" d="M77.283,432.524a8.158,8.158,0,0,1-11.543-1.9c-2.669-3.781-3.684-11.686.021-14.414s8.087,3.048,12.215,5.04C83.732,424.023,80.989,429.795,77.283,432.524Z" transform="translate(-44.358 -229.999)" fill="#f8a42b" opacity="0.47"/>
          <path id="Path_6" data-name="Path 6" d="M404.269,20.627a10.277,10.277,0,0,1,14.747-.225c4.129,4.1,7.091,13.682,3.076,17.9s-10.7-1.97-16.255-3.517C398.088,32.628,400.254,24.846,404.269,20.627Z" transform="translate(-224.492 -17.395)" fill="#f8a42b" opacity="0.47"/>
        </g>
        <g id="Group_12" data-name="Group 12" transform="translate(7.803 15.714)">
          <path id="Path_7" data-name="Path 7" d="M41.985,105.882a45.457,45.457,0,0,0-1.7,24.412c2.36,10.853,10.488,20.393,9.1,31.968-.832,6.946-.684,13.312-.851,20.137-.344,14.013,9.447,25.613,20.933,31.419,9.329,4.716,19.936,5.96,30.175,5.058a115.375,115.375,0,0,0,27.049-6.229c8.441-2.89,16.636-6.481,25.738-6.212,7.57.223,14.589,3.037,21.773,4.991,17.151,4.665,37.443,4,52.02-6.108,15.979-11.081,22.434-32.107,16.85-50.482-3-9.856-6.994-18.4-5.547-28.9.711-5.166,1.773-10.423.793-15.545-.9-4.713-3.486-8.955-6.551-12.647-8.264-9.957-20.028-16.306-32.258-20.041-13.873-4.238-29.276-6.548-43.7-4.354-28.023,4.262-34.122.117-63.416-4.042C72.774,66.521,54.353,82.124,45.41,98.221A48.6,48.6,0,0,0,41.985,105.882Z" transform="translate(-39.34 -60.66)" fill="#f8a42b" opacity="0.32"/>
          <g id="Group_11" data-name="Group 11" transform="translate(12.042)" opacity="0.83">
            <path id="Path_8" data-name="Path 8" d="M69.351,118.894c4.036-5.326,10.276-8.943,13.333-15.063,3.66-7.326,2.889-15.973,6.157-23.458a50.9,50.9,0,0,1,24.532-25.613A33.778,33.778,0,0,1,130.1,51.194c8.713.668,16.229,5.855,22.106,12.05,8.747,9.219,14.932,22.312,25.43,29.7,5.793,4.077,12.6-.248,18.738-1.62a42.464,42.464,0,0,1,20.784.7,44.209,44.209,0,0,1,27.988,23.759c5.615,12.315,4.817,29.341-5.723,39.929-4.876,4.9-11.488,8.172-15.107,14.039-4.541,7.363-5.074,17.316-6.341,25.5A54.108,54.108,0,0,1,206.9,220.413l-.2.248a35.67,35.67,0,0,1-41.83,10.485l-30.89-13.383c-31.343-13.579-55.138-35.46-66.561-67.172-2.472-6.862-3.37-21.492-.221-28.191A19.654,19.654,0,0,1,69.351,118.894Z" transform="translate(-65.183 -51.12)" fill="#f8a42b" opacity="0.81"/>
          </g>
        </g>
      </g>
      <circle id="Ellipse_3" data-name="Ellipse 3" cx="2.097" cy="2.097" r="2.097" transform="translate(166.327 191.49)" fill="#f06d0c" opacity="0.58"/>
      <circle id="Ellipse_4" data-name="Ellipse 4" cx="1.048" cy="1.048" r="1.048" transform="translate(114.315 8.371)" fill="#3e479b" opacity="0.58"/>
      <circle id="Ellipse_5" data-name="Ellipse 5" cx="2.097" cy="2.097" r="2.097" transform="translate(48.561 196.525)" fill="#f06d0c" opacity="0.58"/>
      <circle id="Ellipse_6" data-name="Ellipse 6" cx="1.631" cy="1.631" r="1.631" transform="translate(175.334 206.446)" fill="#ef929c" opacity="0.58"/>
      <circle id="Ellipse_7" data-name="Ellipse 7" cx="0.699" cy="0.699" r="0.699" transform="translate(15.826 10.199)" fill="#3e479b" opacity="0.58"/>
      <circle id="Ellipse_8" data-name="Ellipse 8" cx="2.518" cy="2.518" r="2.518" transform="translate(202.385 30.609) rotate(-63.039)" fill="#ef929c" opacity="0.58"/>
      <path id="Path_9" data-name="Path 9" d="M72.908,25.436a.987.987,0,1,1-.759-1.172A.988.988,0,0,1,72.908,25.436Z" transform="translate(-48.421 -21.051)" fill="#ef929c" opacity="0.58"/>
      <path id="Path_10" data-name="Path 10" d="M287.534,18.589a.987.987,0,1,1-.759-1.172A.988.988,0,0,1,287.534,18.589Z" transform="translate(-163.045 -17.395)" fill="#ef929c" opacity="0.58"/>
      <path id="Path_11" data-name="Path 11" d="M436.741,85.339a.839.839,0,1,1-.645-1A.839.839,0,0,1,436.741,85.339Z" transform="translate(-242.887 -53.139)" fill="#3e479b" opacity="0.58"/>
      <path id="Path_12" data-name="Path 12" d="M39.2,395.746a.839.839,0,1,1-.645-1A.838.838,0,0,1,39.2,395.746Z" transform="translate(-30.575 -218.915)" fill="#3e479b" opacity="0.58"/>
    </g>
    <g id="OBJECTS" transform="translate(26.927 12.261)">
      <g id="Group_28" data-name="Group 28" transform="translate(0 27.929)">
        <g id="Group_18" data-name="Group 18" transform="translate(35.633)" opacity="0.66">
          <g id="Group_17" data-name="Group 17">
            <g id="Group_14" data-name="Group 14" transform="translate(73.616)">
              <path id="Path_13" data-name="Path 13" d="M341.072,152.45h-3.637a2.772,2.772,0,0,1-2.769-2.769v-4.091a1.845,1.845,0,0,0-1.207-1.725c-.43-.157-.857-.335-1.272-.527a1.861,1.861,0,0,0-2.092.358l-2.893,2.893a2.77,2.77,0,0,1-3.916,0l-2.572-2.572a2.773,2.773,0,0,1,0-3.916l2.893-2.893a1.86,1.86,0,0,0,.358-2.092c-.193-.418-.37-.846-.527-1.272a1.845,1.845,0,0,0-1.725-1.207h-4.091a2.772,2.772,0,0,1-2.77-2.769v-3.637a2.772,2.772,0,0,1,2.77-2.769h4.091a1.845,1.845,0,0,0,1.725-1.207c.157-.427.334-.855.527-1.272a1.861,1.861,0,0,0-.358-2.092L320.714,116a2.772,2.772,0,0,1,0-3.916l2.572-2.572a2.772,2.772,0,0,1,3.916,0l2.893,2.893a1.861,1.861,0,0,0,2.092.358c.418-.193.846-.37,1.272-.527a1.845,1.845,0,0,0,1.207-1.725v-4.091a2.772,2.772,0,0,1,2.769-2.769h3.637a2.772,2.772,0,0,1,2.769,2.769v4.091a1.845,1.845,0,0,0,1.207,1.725c.426.157.854.334,1.272.527a1.86,1.86,0,0,0,2.092-.358l2.893-2.893a2.772,2.772,0,0,1,3.916,0l2.572,2.572a2.773,2.773,0,0,1,0,3.916l-2.893,2.894a1.859,1.859,0,0,0-.358,2.092c.192.417.37.845.527,1.272a1.845,1.845,0,0,0,1.725,1.207h4.091a2.772,2.772,0,0,1,2.77,2.769v3.637a2.772,2.772,0,0,1-2.77,2.769h-4.091a1.846,1.846,0,0,0-1.725,1.207c-.156.426-.334.854-.526,1.272a1.859,1.859,0,0,0,.358,2.092l2.893,2.893a2.773,2.773,0,0,1,0,3.916l-2.572,2.572a2.77,2.77,0,0,1-3.916,0l-2.893-2.893a1.861,1.861,0,0,0-2.092-.358c-.414.192-.842.37-1.272.527a1.845,1.845,0,0,0-1.207,1.725v4.091A2.772,2.772,0,0,1,341.072,152.45ZM331.4,142.232a2.8,2.8,0,0,1,1.181.26c.391.181.8.349,1.2.5a2.781,2.781,0,0,1,1.818,2.6v4.091a1.839,1.839,0,0,0,1.837,1.837h3.637a1.839,1.839,0,0,0,1.837-1.837v-4.091a2.781,2.781,0,0,1,1.818-2.6c.406-.149.81-.316,1.2-.5a2.8,2.8,0,0,1,3.143.545l2.893,2.893a1.84,1.84,0,0,0,2.6,0l2.572-2.572a1.84,1.84,0,0,0,0-2.6l-2.893-2.893a2.794,2.794,0,0,1-.545-3.143c.182-.394.349-.8.5-1.2a2.78,2.78,0,0,1,2.6-1.818h4.091a1.84,1.84,0,0,0,1.838-1.837v-3.637a1.84,1.84,0,0,0-1.838-1.837h-4.091a2.781,2.781,0,0,1-2.6-1.818c-.148-.4-.316-.808-.5-1.2a2.793,2.793,0,0,1,.545-3.142l2.893-2.894a1.84,1.84,0,0,0,0-2.6l-2.572-2.572a1.84,1.84,0,0,0-2.6,0l-2.893,2.894a2.8,2.8,0,0,1-3.143.545c-.394-.182-.8-.35-1.2-.5a2.781,2.781,0,0,1-1.819-2.6v-4.091a1.839,1.839,0,0,0-1.837-1.837h-3.637a1.839,1.839,0,0,0-1.837,1.837v4.091a2.781,2.781,0,0,1-1.818,2.6c-.4.147-.807.315-1.2.5a2.794,2.794,0,0,1-3.142-.545l-2.893-2.894a1.84,1.84,0,0,0-2.6,0l-2.572,2.572a1.84,1.84,0,0,0,0,2.6l2.893,2.894a2.8,2.8,0,0,1,.545,3.142c-.182.393-.349.8-.5,1.2a2.78,2.78,0,0,1-2.6,1.818h-4.091a1.839,1.839,0,0,0-1.838,1.837v3.637a1.84,1.84,0,0,0,1.838,1.837h4.091a2.779,2.779,0,0,1,2.6,1.818c.148.4.315.807.5,1.2a2.8,2.8,0,0,1-.545,3.142l-2.893,2.893a1.84,1.84,0,0,0,0,2.6l2.572,2.572a1.84,1.84,0,0,0,2.6,0l2.893-2.893A2.773,2.773,0,0,1,331.4,142.232Zm7.856-1.392a12.79,12.79,0,1,1,12.79-12.79A12.8,12.8,0,0,1,339.253,140.84Zm0-24.648a11.858,11.858,0,1,0,11.858,11.858A11.872,11.872,0,0,0,339.253,116.192Z" transform="translate(-314.853 -103.65)" fill="#fff"/>
            </g>
            <g id="Group_15" data-name="Group 15" transform="translate(42.531 93.312)" opacity="0.84">
              <path id="Path_14" data-name="Path 14" d="M298.67,325.888h-4.537a2.555,2.555,0,0,1-2.4-1.677q-.257-.7-.568-1.371a2.569,2.569,0,0,1,.5-2.9l3.208-3.208a2.554,2.554,0,0,0,0-3.612l-2.852-2.852a2.554,2.554,0,0,0-3.612,0l-3.209,3.209a2.569,2.569,0,0,1-2.9.5q-.672-.311-1.371-.568a2.556,2.556,0,0,1-1.677-2.4V306.47a2.554,2.554,0,0,0-2.554-2.554h-4.033a2.554,2.554,0,0,0-2.554,2.554v4.538a2.556,2.556,0,0,1-1.677,2.4q-.7.256-1.371.568a2.569,2.569,0,0,1-2.9-.5l-3.208-3.209a2.554,2.554,0,0,0-3.612,0l-2.852,2.852a2.554,2.554,0,0,0,0,3.612l3.208,3.208a2.57,2.57,0,0,1,.5,2.9q-.311.671-.568,1.371a2.555,2.555,0,0,1-2.4,1.677h-4.537a2.555,2.555,0,0,0-2.554,2.554v4.034a2.555,2.555,0,0,0,2.554,2.554h4.537a2.555,2.555,0,0,1,2.4,1.677q.256.7.568,1.371a2.569,2.569,0,0,1-.5,2.9l-3.208,3.208a2.554,2.554,0,0,0,0,3.612l2.852,2.852a2.554,2.554,0,0,0,3.612,0l3.208-3.209a2.57,2.57,0,0,1,2.9-.5q.671.311,1.371.568a2.556,2.556,0,0,1,1.677,2.4v4.538A2.554,2.554,0,0,0,272.665,357H276.7a2.554,2.554,0,0,0,2.554-2.554v-4.538a2.556,2.556,0,0,1,1.677-2.4q.7-.256,1.371-.568a2.57,2.57,0,0,1,2.9.5l3.209,3.209a2.554,2.554,0,0,0,3.612,0l2.852-2.852a2.554,2.554,0,0,0,0-3.612l-3.208-3.208a2.569,2.569,0,0,1-.5-2.9q.311-.671.568-1.371a2.555,2.555,0,0,1,2.4-1.677h4.537a2.554,2.554,0,0,0,2.554-2.554v-4.034A2.554,2.554,0,0,0,298.67,325.888Zm-23.989,18.239a13.668,13.668,0,1,1,13.668-13.668A13.668,13.668,0,0,1,274.681,344.127Z" transform="translate(-248.138 -303.916)" fill="#fff"/>
            </g>
            <g id="Group_16" data-name="Group 16" transform="translate(0 101.316)">
              <path id="Path_15" data-name="Path 15" d="M178.958,362.238H175.9a2.4,2.4,0,0,1-2.4-2.4V356.4a1.476,1.476,0,0,0-.965-1.38c-.36-.131-.722-.281-1.074-.445a1.49,1.49,0,0,0-1.673.286l-2.431,2.43a2.4,2.4,0,0,1-3.395,0l-2.16-2.16a2.4,2.4,0,0,1,0-3.4l2.43-2.43a1.488,1.488,0,0,0,.286-1.673c-.162-.35-.312-.712-.445-1.074a1.475,1.475,0,0,0-1.379-.965H159.26a2.4,2.4,0,0,1-2.4-2.4v-3.055a2.4,2.4,0,0,1,2.4-2.4H162.7a1.475,1.475,0,0,0,1.379-.965c.134-.365.283-.726.445-1.074a1.488,1.488,0,0,0-.286-1.673L161.8,331.6a2.4,2.4,0,0,1,0-3.395l2.16-2.161a2.4,2.4,0,0,1,3.395,0l2.431,2.431a1.487,1.487,0,0,0,1.673.286c.347-.161.709-.31,1.074-.445a1.476,1.476,0,0,0,.965-1.379V323.5a2.4,2.4,0,0,1,2.4-2.4h3.055a2.4,2.4,0,0,1,2.4,2.4v3.437a1.476,1.476,0,0,0,.965,1.379c.365.134.726.283,1.074.445a1.488,1.488,0,0,0,1.674-.286l2.43-2.431a2.4,2.4,0,0,1,3.395,0l2.161,2.161a2.4,2.4,0,0,1,0,3.395l-2.43,2.431a1.489,1.489,0,0,0-.287,1.674c.162.347.311.709.445,1.074a1.476,1.476,0,0,0,1.379.965H195.6a2.4,2.4,0,0,1,2.4,2.4v3.055a2.4,2.4,0,0,1-2.4,2.4h-3.437a1.476,1.476,0,0,0-1.379.965c-.133.362-.283.724-.445,1.074a1.488,1.488,0,0,0,.287,1.673l2.43,2.43a2.4,2.4,0,0,1,0,3.4l-2.161,2.16a2.4,2.4,0,0,1-3.395,0l-2.43-2.43a1.491,1.491,0,0,0-1.674-.286c-.353.164-.714.313-1.074.445a1.475,1.475,0,0,0-.965,1.379v3.437A2.4,2.4,0,0,1,178.958,362.238Zm-8.126-8.733a2.437,2.437,0,0,1,1.023.226c.328.152.666.292,1,.415a2.413,2.413,0,0,1,1.576,2.255v3.437a1.471,1.471,0,0,0,1.469,1.469h3.055a1.471,1.471,0,0,0,1.469-1.469V356.4A2.411,2.411,0,0,1,182,354.146c.336-.123.673-.262,1-.415a2.425,2.425,0,0,1,2.724.472l2.43,2.43a1.5,1.5,0,0,0,2.077,0l2.161-2.161a1.469,1.469,0,0,0,0-2.077l-2.431-2.43a2.423,2.423,0,0,1-.472-2.724c.151-.327.291-.664.415-1a2.411,2.411,0,0,1,2.254-1.577H195.6a1.471,1.471,0,0,0,1.469-1.469v-3.055a1.47,1.47,0,0,0-1.469-1.469h-3.437a2.412,2.412,0,0,1-2.254-1.576c-.125-.341-.264-.678-.415-1a2.423,2.423,0,0,1,.472-2.724l2.431-2.431a1.469,1.469,0,0,0,0-2.077l-2.161-2.161a1.471,1.471,0,0,0-2.077,0l-2.43,2.431a2.422,2.422,0,0,1-2.724.472c-.324-.151-.662-.29-1-.416a2.411,2.411,0,0,1-1.576-2.254V323.5a1.47,1.47,0,0,0-1.469-1.469H175.9a1.47,1.47,0,0,0-1.469,1.469v3.437a2.411,2.411,0,0,1-1.576,2.254c-.342.125-.679.265-1,.416a2.421,2.421,0,0,1-2.724-.472L166.7,326.7a1.471,1.471,0,0,0-2.077,0l-2.16,2.161a1.468,1.468,0,0,0,0,2.077l2.43,2.431a2.423,2.423,0,0,1,.472,2.723c-.15.325-.29.663-.416,1a2.41,2.41,0,0,1-2.254,1.576H159.26a1.47,1.47,0,0,0-1.469,1.469v3.055a1.471,1.471,0,0,0,1.469,1.469H162.7a2.41,2.41,0,0,1,2.254,1.576c.124.338.264.676.415,1a2.422,2.422,0,0,1-.472,2.724l-2.43,2.43a1.468,1.468,0,0,0,0,2.077l2.16,2.161a1.5,1.5,0,0,0,2.077,0l2.431-2.43A2.4,2.4,0,0,1,170.832,353.505Zm6.6-1.02a10.819,10.819,0,1,1,10.818-10.819A10.831,10.831,0,0,1,177.431,352.485Zm0-20.705a9.887,9.887,0,1,0,9.886,9.887A9.9,9.9,0,0,0,177.431,331.779Z" transform="translate(-156.859 -321.095)" fill="#fff"/>
            </g>
          </g>
        </g>
        <g id="Group_27" data-name="Group 27" transform="translate(0 26.013)">
          <g id="Group_22" data-name="Group 22" transform="translate(122.676 52.618)" opacity="0.81">
            <path id="Path_16" data-name="Path 16" d="M408.935,299.854h-6.075a.466.466,0,0,1,0-.932h6.075a.466.466,0,0,1,0,.932Z" transform="translate(-375.034 -286.568)" fill="#fff"/>
            <path id="Path_17" data-name="Path 17" d="M408.935,321.336h-6.075a.466.466,0,0,1,0-.932h6.075a.466.466,0,0,1,0,.932Z" transform="translate(-375.034 -298.041)" fill="#fff"/>
            <g id="Group_21" data-name="Group 21">
              <g id="Group_20" data-name="Group 20">
                <g id="Group_19" data-name="Group 19">
                  <path id="Path_18" data-name="Path 18" d="M381.867,305.812H344.936a1.265,1.265,0,0,1-1.264-1.264V273.671a1.265,1.265,0,0,1,1.264-1.263h36.932a1.265,1.265,0,0,1,1.264,1.263v30.877A1.265,1.265,0,0,1,381.867,305.812ZM344.936,273.34a.332.332,0,0,0-.332.331v30.877a.332.332,0,0,0,.332.332h36.932a.332.332,0,0,0,.332-.332V273.671a.332.332,0,0,0-.332-.331Z" transform="translate(-343.672 -272.408)" fill="#fff"/>
                  <path id="Path_19" data-name="Path 19" d="M381.867,305.812H344.936a1.265,1.265,0,0,1-1.264-1.264V273.671a1.265,1.265,0,0,1,1.264-1.263h36.932a1.265,1.265,0,0,1,1.264,1.263v30.877A1.265,1.265,0,0,1,381.867,305.812ZM344.936,273.34a.332.332,0,0,0-.332.331v30.877a.332.332,0,0,0,.332.332h36.932a.332.332,0,0,0,.332-.332V273.671a.332.332,0,0,0-.332-.331Z" transform="translate(-343.672 -272.408)" fill="#fff" opacity="0.66"/>
                </g>
              </g>
              <path id="Path_20" data-name="Path 20" d="M382.721,289.428H353.775a.466.466,0,1,1,0-.932h28.946a.466.466,0,1,1,0,.932Z" transform="translate(-348.819 -281)" fill="#fff"/>
              <path id="Path_21" data-name="Path 21" d="M382.721,310.279H353.775a.466.466,0,0,1,0-.932h28.946a.466.466,0,0,1,0,.932Z" transform="translate(-348.819 -292.136)" fill="#fff"/>
              <path id="Path_22" data-name="Path 22" d="M369.381,299.854H353.775a.466.466,0,0,1,0-.932h15.606a.466.466,0,0,1,0,.932Z" transform="translate(-348.819 -286.568)" fill="#fff"/>
              <path id="Path_23" data-name="Path 23" d="M369.381,321.336H353.775a.466.466,0,0,1,0-.932h15.606a.466.466,0,0,1,0,.932Z" transform="translate(-348.819 -298.041)" fill="#fff"/>
              <path id="Path_24" data-name="Path 24" d="M364.3,331.288H353.775a.466.466,0,0,1,0-.932H364.3a.466.466,0,0,1,0,.932Z" transform="translate(-348.819 -303.356)" fill="#fff"/>
            </g>
          </g>
          <g id="Group_26" data-name="Group 26" opacity="0.81">
            <path id="Path_25" data-name="Path 25" d="M154.365,190.492h-6.892a.466.466,0,0,1,0-.932h6.892a.466.466,0,0,1,0,.932Z" transform="translate(-115.965 -175.544)" fill="#fff"/>
            <path id="Path_26" data-name="Path 26" d="M154.365,214.865h-6.892a.466.466,0,1,1,0-.932h6.892a.466.466,0,1,1,0,.932Z" transform="translate(-115.965 -188.561)" fill="#fff"/>
            <g id="Group_25" data-name="Group 25">
              <g id="Group_24" data-name="Group 24">
                <g id="Group_23" data-name="Group 23">
                  <path id="Path_27" data-name="Path 27" d="M123.763,197.251H81.647a1.265,1.265,0,0,1-1.263-1.263V160.742a1.264,1.264,0,0,1,1.263-1.263h42.116a1.264,1.264,0,0,1,1.263,1.263v35.246A1.265,1.265,0,0,1,123.763,197.251ZM81.647,160.411a.332.332,0,0,0-.331.331v35.246a.332.332,0,0,0,.331.331h42.116a.332.332,0,0,0,.331-.331V160.742a.332.332,0,0,0-.331-.331Z" transform="translate(-80.384 -159.479)" fill="#fff"/>
                  <path id="Path_28" data-name="Path 28" d="M123.763,197.251H81.647a1.265,1.265,0,0,1-1.263-1.263V160.742a1.264,1.264,0,0,1,1.263-1.263h42.116a1.264,1.264,0,0,1,1.263,1.263v35.246A1.265,1.265,0,0,1,123.763,197.251ZM81.647,160.411a.332.332,0,0,0-.331.331v35.246a.332.332,0,0,0,.331.331h42.116a.332.332,0,0,0,.331-.331V160.742a.332.332,0,0,0-.331-.331Z" transform="translate(-80.384 -159.479)" fill="#fff" opacity="0.66"/>
                </g>
              </g>
              <path id="Path_29" data-name="Path 29" d="M124.623,178.663H91.783a.466.466,0,1,1,0-.932h32.84a.466.466,0,0,1,0,.932Z" transform="translate(-86.223 -169.227)" fill="#fff"/>
              <path id="Path_30" data-name="Path 30" d="M124.623,202.32H91.783a.466.466,0,1,1,0-.932h32.84a.466.466,0,0,1,0,.932Z" transform="translate(-86.223 -181.861)" fill="#fff"/>
              <path id="Path_31" data-name="Path 31" d="M109.488,190.492H91.783a.466.466,0,0,1,0-.932h17.705a.466.466,0,0,1,0,.932Z" transform="translate(-86.223 -175.544)" fill="#fff"/>
              <path id="Path_32" data-name="Path 32" d="M109.488,214.865H91.783a.466.466,0,1,1,0-.932h17.705a.466.466,0,1,1,0,.932Z" transform="translate(-86.223 -188.561)" fill="#fff"/>
              <path id="Path_33" data-name="Path 33" d="M103.723,226.156H91.783a.466.466,0,0,1,0-.932h11.94a.466.466,0,0,1,0,.932Z" transform="translate(-86.223 -194.591)" fill="#fff"/>
            </g>
          </g>
        </g>
      </g>
      <g id="Group_34" data-name="Group 34" transform="translate(27.835 56.479)">
        <g id="Group_30" data-name="Group 30" transform="translate(51.401 0)">
          <g id="Group_29" data-name="Group 29">
            <path id="Path_34" data-name="Path 34" d="M356.745,158.019H335.8a2.246,2.246,0,0,0-2.078,1.7l-.694,2.3a2.247,2.247,0,0,1-2.078,1.7H300.972a2.387,2.387,0,0,0-2.2,2.538h0v33.945a2.387,2.387,0,0,0,2.2,2.538h55.773a2.449,2.449,0,0,0,2.349-2.538V160.557A2.449,2.449,0,0,0,356.745,158.019Z" transform="translate(-298.772 -158.019)" fill="#e07030"/>
            <path id="Path_35" data-name="Path 35" d="M335.349,166.451l.741-2.3a2.368,2.368,0,0,1,2.218-1.7h18.437a2.449,2.449,0,0,1,2.349,2.538v39.656a2.449,2.449,0,0,1-2.349,2.538H301.12a2.449,2.449,0,0,1-2.348-2.538V170.694a2.449,2.449,0,0,1,2.348-2.538h32.01A2.369,2.369,0,0,0,335.349,166.451Z" transform="translate(-298.772 -160.383)" fill="#f06d0c"/>
            <path id="Path_36" data-name="Path 36" d="M340.684,171.735l.7-2.17a2.233,2.233,0,0,1,2.091-1.607h17.378a2.308,2.308,0,0,1,2.214,2.393v37.378a2.308,2.308,0,0,1-2.214,2.393h-52.43a2.308,2.308,0,0,1-2.213-2.393v-32a2.308,2.308,0,0,1,2.213-2.393h30.172A2.233,2.233,0,0,0,340.684,171.735Z" transform="translate(-302.743 -163.328)" fill="#fff" opacity="0.12"/>
          </g>
          <path id="Path_37" data-name="Path 37" d="M398.29,236.349H384.531a.466.466,0,1,1,0-.932H398.29a1.612,1.612,0,0,0,1.61-1.61V222.892a.466.466,0,0,1,.932,0v10.915A2.545,2.545,0,0,1,398.29,236.349Z" transform="translate(-344.324 -192.416)" fill="#fff"/>
        </g>
        <g id="Group_33" data-name="Group 33" transform="translate(0 17.258)">
          <g id="Group_32" data-name="Group 32">
            <g id="Group_31" data-name="Group 31">
              <path id="Path_38" data-name="Path 38" d="M67.919,240.875H89a2.333,2.333,0,0,1,2.091,1.917l.7,2.589a2.334,2.334,0,0,0,2.091,1.917h30.175c1.223,0,2.214,1.279,2.214,2.855h0v38.185c0,1.577-.991,2.855-2.214,2.855H67.919a2.645,2.645,0,0,1-2.364-2.855V243.73A2.644,2.644,0,0,1,67.919,240.875Z" transform="translate(-65.555 -240.875)" fill="#fff"/>
              <path id="Path_39" data-name="Path 39" d="M89.453,250.361l-.746-2.589a2.442,2.442,0,0,0-2.233-1.917H67.919a2.645,2.645,0,0,0-2.364,2.855v44.608a2.645,2.645,0,0,0,2.364,2.855H123.9a2.645,2.645,0,0,0,2.364-2.855V255.133a2.644,2.644,0,0,0-2.364-2.855H91.685A2.442,2.442,0,0,1,89.453,250.361Z" transform="translate(-65.555 -243.534)" fill="#fff" opacity="0.12"/>
              <path id="Path_40" data-name="Path 40" d="M88.08,256.3l-.7-2.441a2.3,2.3,0,0,0-2.1-1.807H67.783a2.493,2.493,0,0,0-2.228,2.691v42.046a2.493,2.493,0,0,0,2.228,2.691h52.768a2.492,2.492,0,0,0,2.228-2.691V260.8a2.493,2.493,0,0,0-2.228-2.692H90.185A2.3,2.3,0,0,1,88.08,256.3Z" transform="translate(-65.555 -246.847)" fill="#f8a42b" opacity="0.12"/>
            </g>
          </g>
          <path id="Path_41" data-name="Path 41" d="M74.32,266.285a.443.443,0,0,1-.417-.466v-6.467a1.514,1.514,0,0,1,1.422-1.589h8.687a.469.469,0,0,1,0,.932H75.325a.626.626,0,0,0-.588.657v6.467A.443.443,0,0,1,74.32,266.285Z" transform="translate(-70.013 -249.894)" fill="#f06d0c"/>
        </g>
      </g>
      <g id="Group_49" data-name="Group 49" transform="translate(32.359 0)">
        <g id="Group_42" data-name="Group 42" transform="translate(0)">
          <g id="Group_36" data-name="Group 36" transform="translate(0 13.257)">
            <g id="Group_35" data-name="Group 35">
              <rect id="Rectangle_2" data-name="Rectangle 2" width="95.885" height="36.008" rx="18.004" transform="translate(0 22.567)" fill="#dc6206"/>
              <circle id="Ellipse_9" data-name="Ellipse 9" cx="25.321" cy="25.321" r="25.321" transform="translate(22.622)" fill="#dc6206"/>
            </g>
          </g>
          <g id="Group_37" data-name="Group 37">
            <rect id="Rectangle_3" data-name="Rectangle 3" width="95.885" height="36.008" rx="18.004" transform="translate(0 30.52)" fill="#599af2"/>
            <circle id="Ellipse_10" data-name="Ellipse 10" cx="25.321" cy="25.321" r="25.321" transform="translate(14.67 20.038) rotate(-23.309)" fill="#599af2"/>
          </g>
          <g id="Group_39" data-name="Group 39">
            <g id="Group_38" data-name="Group 38">
              <rect id="Rectangle_4" data-name="Rectangle 4" width="95.885" height="36.008" rx="18.004" transform="translate(0 30.52)" fill="#dc6206"/>
              <circle id="Ellipse_11" data-name="Ellipse 11" cx="25.321" cy="25.321" r="25.321" transform="translate(14.67 20.038) rotate(-23.309)" fill="#dc6206"/>
            </g>
          </g>
          <g id="Group_41" data-name="Group 41" transform="translate(33.873 28.366)">
            <g id="Group_40" data-name="Group 40" transform="translate(6.984)">
              <path id="Path_42" data-name="Path 42" d="M238.684,113.264a1.165,1.165,0,0,1-.816-2l6.8-6.68,6.687,6.687a1.165,1.165,0,1,1-1.647,1.647l-5.054-5.054L239.5,112.93A1.16,1.16,0,0,1,238.684,113.264Z" transform="translate(-237.52 -104.589)" fill="#fff"/>
              <path id="Path_43" data-name="Path 43" d="M251.392,123.074a1.165,1.165,0,0,1-1.165-1.165V106.774a1.165,1.165,0,0,1,2.33,0v15.135A1.165,1.165,0,0,1,251.392,123.074Z" transform="translate(-244.306 -105.134)" fill="#fff"/>
            </g>
            <path id="Path_44" data-name="Path 44" d="M247.611,144.633H225.417a2.889,2.889,0,0,1-2.886-2.886v-8.063a1.165,1.165,0,0,1,2.33,0v8.063a.556.556,0,0,0,.556.556h22.195a.731.731,0,0,0,.73-.73v-7.889a1.165,1.165,0,0,1,2.33,0v7.889A3.063,3.063,0,0,1,247.611,144.633Z" transform="translate(-222.531 -119.505)" fill="#fff"/>
          </g>
        </g>
      </g>
    </g>
  </g>
</svg>
