<svg id="noun_X_2939490" xmlns="http://www.w3.org/2000/svg" width="14.123" height="15.324" viewBox="0 0 14.123 15.324">
  <path id="Path_45051" data-name="Path 45051" d="M18.847,5.3a.89.89,0,0,0-1.332,0l-5.454,5.918L6.607,5.3a.89.89,0,0,0-1.332,0,1.084,1.084,0,0,0,0,1.445l5.454,5.918L5.276,18.58a1.084,1.084,0,0,0,0,1.445.89.89,0,0,0,1.332,0l5.454-5.918,5.454,5.918a.89.89,0,0,0,1.332,0,1.084,1.084,0,0,0,0-1.445l-5.454-5.918,5.454-5.918A1.084,1.084,0,0,0,18.847,5.3Z" transform="translate(-5 -5)" fill="#151d21"/>
</svg>
